<mxfile>
    <diagram id="M2TNECSAPc8-mV6phaxg" name="main.main">
        <mxGraphModel dx="500" dy="358" grid="1" gridSize="10" guides="1" tooltips="1" connect="1" arrows="1" fold="1" page="1" pageScale="1" pageWidth="827" pageHeight="1169" math="0" shadow="0">
            <root>
                <mxCell id="0"/>
                <mxCell id="1" parent="0"/>
                <mxCell id="11" value="" style="edgeStyle=orthogonalEdgeStyle;rounded=0;orthogonalLoop=1;jettySize=auto;html=1;" edge="1" parent="1" source="3" target="10">
                    <mxGeometry relative="1" as="geometry"/>
                </mxCell>
                <mxCell id="3" value="Main Start" style="html=1;dashed=0;whitespace=wrap;shape=mxgraph.dfd.start" vertex="1" parent="1">
                    <mxGeometry x="140" y="70" width="80" height="30" as="geometry"/>
                </mxCell>
                <mxCell id="4" value="Main End" style="html=1;dashed=0;whitespace=wrap;shape=mxgraph.dfd.start" vertex="1" parent="1">
                    <mxGeometry x="140" y="640" width="80" height="30" as="geometry"/>
                </mxCell>
                <mxCell id="13" value="" style="edgeStyle=orthogonalEdgeStyle;rounded=0;orthogonalLoop=1;jettySize=auto;html=1;" edge="1" parent="1" source="10" target="12">
                    <mxGeometry relative="1" as="geometry"/>
                </mxCell>
                <mxCell id="10" value="DB.Run" style="shape=process;whiteSpace=wrap;html=1;backgroundOutline=1;size=0.08333333333333333;" vertex="1" parent="1">
                    <mxGeometry x="120" y="150" width="120" height="60" as="geometry"/>
                </mxCell>
                <mxCell id="15" value="" style="edgeStyle=orthogonalEdgeStyle;rounded=0;orthogonalLoop=1;jettySize=auto;html=1;" edge="1" parent="1" source="12" target="14">
                    <mxGeometry relative="1" as="geometry"/>
                </mxCell>
                <mxCell id="12" value="Hoster.Run" style="shape=process;whiteSpace=wrap;html=1;backgroundOutline=1;" vertex="1" parent="1">
                    <mxGeometry x="120" y="270" width="120" height="60" as="geometry"/>
                </mxCell>
                <mxCell id="18" value="" style="edgeStyle=orthogonalEdgeStyle;rounded=0;orthogonalLoop=1;jettySize=auto;html=1;" edge="1" parent="1" source="14" target="16">
                    <mxGeometry relative="1" as="geometry"/>
                </mxCell>
                <mxCell id="14" value="WSS.Run" style="shape=process;whiteSpace=wrap;html=1;backgroundOutline=1;" vertex="1" parent="1">
                    <mxGeometry x="120" y="370" width="120" height="60" as="geometry"/>
                </mxCell>
                <mxCell id="19" value="" style="edgeStyle=orthogonalEdgeStyle;rounded=0;orthogonalLoop=1;jettySize=auto;html=1;" edge="1" parent="1" source="16" target="17">
                    <mxGeometry relative="1" as="geometry"/>
                </mxCell>
                <mxCell id="16" value="Plugin.Run" style="shape=process;whiteSpace=wrap;html=1;backgroundOutline=1;" vertex="1" parent="1">
                    <mxGeometry x="120" y="470" width="120" height="60" as="geometry"/>
                </mxCell>
                <mxCell id="20" value="" style="edgeStyle=orthogonalEdgeStyle;rounded=0;orthogonalLoop=1;jettySize=auto;html=1;" edge="1" parent="1" source="17" target="4">
                    <mxGeometry relative="1" as="geometry"/>
                </mxCell>
                <mxCell id="17" value="Cmd.Run" style="shape=process;whiteSpace=wrap;html=1;backgroundOutline=1;" vertex="1" parent="1">
                    <mxGeometry x="120" y="560" width="120" height="60" as="geometry"/>
                </mxCell>
            </root>
        </mxGraphModel>
    </diagram>
    <diagram id="DgRXm54Mt9QiTP9P1XXc" name="db.Run">
        <mxGraphModel dx="600" dy="430" grid="1" gridSize="10" guides="1" tooltips="1" connect="1" arrows="1" fold="1" page="1" pageScale="1" pageWidth="827" pageHeight="1169" math="0" shadow="0">
            <root>
                <mxCell id="7sUdZJNiSN5nUaYsZcpJ-0"/>
                <mxCell id="7sUdZJNiSN5nUaYsZcpJ-1" parent="7sUdZJNiSN5nUaYsZcpJ-0"/>
                <mxCell id="OEZo2ttJMFzqsk96og1l-4" value="" style="edgeStyle=orthogonalEdgeStyle;rounded=0;orthogonalLoop=1;jettySize=auto;html=1;" edge="1" parent="7sUdZJNiSN5nUaYsZcpJ-1" source="7sUdZJNiSN5nUaYsZcpJ-5" target="OEZo2ttJMFzqsk96og1l-3">
                    <mxGeometry relative="1" as="geometry"/>
                </mxCell>
                <mxCell id="7sUdZJNiSN5nUaYsZcpJ-5" value="DB.Run Start" style="html=1;dashed=0;whitespace=wrap;shape=mxgraph.dfd.start" vertex="1" parent="7sUdZJNiSN5nUaYsZcpJ-1">
                    <mxGeometry x="270" y="210" width="80" height="30" as="geometry"/>
                </mxCell>
                <mxCell id="Ix3oLzgPtq5K5zmP9US0-0" value="DB.Run End" style="html=1;dashed=0;whitespace=wrap;shape=mxgraph.dfd.start" vertex="1" parent="7sUdZJNiSN5nUaYsZcpJ-1">
                    <mxGeometry x="270" y="990" width="80" height="30" as="geometry"/>
                </mxCell>
                <mxCell id="OEZo2ttJMFzqsk96og1l-6" value="" style="edgeStyle=orthogonalEdgeStyle;rounded=0;orthogonalLoop=1;jettySize=auto;html=1;" edge="1" parent="7sUdZJNiSN5nUaYsZcpJ-1" source="OEZo2ttJMFzqsk96og1l-3" target="OEZo2ttJMFzqsk96og1l-5">
                    <mxGeometry relative="1" as="geometry"/>
                </mxCell>
                <mxCell id="OEZo2ttJMFzqsk96og1l-3" value="&lt;span&gt;Server List&lt;/span&gt;" style="strokeWidth=2;html=1;shape=mxgraph.flowchart.database;whiteSpace=wrap;" vertex="1" parent="7sUdZJNiSN5nUaYsZcpJ-1">
                    <mxGeometry x="280" y="300" width="60" height="60" as="geometry"/>
                </mxCell>
                <mxCell id="OEZo2ttJMFzqsk96og1l-5" value="init ?" style="strokeWidth=2;html=1;shape=mxgraph.flowchart.decision;whiteSpace=wrap;" vertex="1" parent="7sUdZJNiSN5nUaYsZcpJ-1">
                    <mxGeometry x="260" y="410" width="100" height="100" as="geometry"/>
                </mxCell>
                <mxCell id="OEZo2ttJMFzqsk96og1l-55" value="" style="edgeStyle=orthogonalEdgeStyle;rounded=0;orthogonalLoop=1;jettySize=auto;html=1;" edge="1" parent="7sUdZJNiSN5nUaYsZcpJ-1" source="OEZo2ttJMFzqsk96og1l-7" target="OEZo2ttJMFzqsk96og1l-54">
                    <mxGeometry relative="1" as="geometry"/>
                </mxCell>
                <mxCell id="OEZo2ttJMFzqsk96og1l-7" value="Account" style="strokeWidth=2;html=1;shape=mxgraph.flowchart.database;whiteSpace=wrap;" vertex="1" parent="7sUdZJNiSN5nUaYsZcpJ-1">
                    <mxGeometry x="280" y="570" width="60" height="60" as="geometry"/>
                </mxCell>
                <mxCell id="OEZo2ttJMFzqsk96og1l-18" value="" style="group" vertex="1" connectable="0" parent="7sUdZJNiSN5nUaYsZcpJ-1">
                    <mxGeometry x="280" y="530" width="30" height="40" as="geometry"/>
                </mxCell>
                <mxCell id="OEZo2ttJMFzqsk96og1l-38" value="" style="group" vertex="1" connectable="0" parent="OEZo2ttJMFzqsk96og1l-18">
                    <mxGeometry x="-10" width="40" height="20" as="geometry"/>
                </mxCell>
                <mxCell id="OEZo2ttJMFzqsk96og1l-9" value="" style="edgeStyle=orthogonalEdgeStyle;rounded=0;orthogonalLoop=1;jettySize=auto;html=1;" edge="1" parent="OEZo2ttJMFzqsk96og1l-38" source="OEZo2ttJMFzqsk96og1l-5" target="OEZo2ttJMFzqsk96og1l-7">
                    <mxGeometry relative="1" as="geometry">
                        <Array as="points">
                            <mxPoint x="40"/>
                            <mxPoint x="40"/>
                        </Array>
                    </mxGeometry>
                </mxCell>
                <mxCell id="OEZo2ttJMFzqsk96og1l-37" value="yes" style="text;html=1;strokeColor=none;fillColor=none;align=center;verticalAlign=middle;whiteSpace=wrap;rounded=0;" vertex="1" parent="OEZo2ttJMFzqsk96og1l-38">
                    <mxGeometry width="40" height="20" as="geometry"/>
                </mxCell>
                <mxCell id="OEZo2ttJMFzqsk96og1l-36" style="edgeStyle=orthogonalEdgeStyle;rounded=0;orthogonalLoop=1;jettySize=auto;html=1;entryX=1;entryY=0.5;entryDx=0;entryDy=0;entryPerimeter=0;" edge="1" parent="7sUdZJNiSN5nUaYsZcpJ-1" source="OEZo2ttJMFzqsk96og1l-22" target="OEZo2ttJMFzqsk96og1l-7">
                    <mxGeometry relative="1" as="geometry">
                        <Array as="points">
                            <mxPoint x="510" y="600"/>
                        </Array>
                    </mxGeometry>
                </mxCell>
                <mxCell id="OEZo2ttJMFzqsk96og1l-22" value="init" style="rounded=0;whiteSpace=wrap;html=1;" vertex="1" parent="7sUdZJNiSN5nUaYsZcpJ-1">
                    <mxGeometry x="450" y="430" width="120" height="60" as="geometry"/>
                </mxCell>
                <mxCell id="OEZo2ttJMFzqsk96og1l-25" value="" style="group" vertex="1" connectable="0" parent="7sUdZJNiSN5nUaYsZcpJ-1">
                    <mxGeometry x="380" y="430" width="30" height="20" as="geometry"/>
                </mxCell>
                <mxCell id="OEZo2ttJMFzqsk96og1l-23" value="" style="edgeStyle=orthogonalEdgeStyle;rounded=0;orthogonalLoop=1;jettySize=auto;html=1;" edge="1" parent="OEZo2ttJMFzqsk96og1l-25" source="OEZo2ttJMFzqsk96og1l-5" target="OEZo2ttJMFzqsk96og1l-22">
                    <mxGeometry relative="1" as="geometry"/>
                </mxCell>
                <mxCell id="OEZo2ttJMFzqsk96og1l-24" value="no" style="text;html=1;resizable=0;autosize=1;align=center;verticalAlign=middle;points=[];fillColor=none;strokeColor=none;rounded=0;" vertex="1" parent="OEZo2ttJMFzqsk96og1l-25">
                    <mxGeometry width="30" height="20" as="geometry"/>
                </mxCell>
                <mxCell id="OEZo2ttJMFzqsk96og1l-39" value="init ?" style="strokeWidth=2;html=1;shape=mxgraph.flowchart.decision;whiteSpace=wrap;" vertex="1" parent="7sUdZJNiSN5nUaYsZcpJ-1">
                    <mxGeometry x="260" y="830" width="100" height="100" as="geometry"/>
                </mxCell>
                <mxCell id="OEZo2ttJMFzqsk96og1l-53" style="edgeStyle=orthogonalEdgeStyle;rounded=0;orthogonalLoop=1;jettySize=auto;html=1;entryX=1;entryY=0.5;entryDx=0;entryDy=0;entryPerimeter=0;" edge="1" parent="7sUdZJNiSN5nUaYsZcpJ-1" source="OEZo2ttJMFzqsk96og1l-43" target="Ix3oLzgPtq5K5zmP9US0-0">
                    <mxGeometry relative="1" as="geometry">
                        <Array as="points">
                            <mxPoint x="510" y="1005"/>
                        </Array>
                    </mxGeometry>
                </mxCell>
                <mxCell id="OEZo2ttJMFzqsk96og1l-43" value="init" style="rounded=0;whiteSpace=wrap;html=1;" vertex="1" parent="7sUdZJNiSN5nUaYsZcpJ-1">
                    <mxGeometry x="450" y="850" width="120" height="60" as="geometry"/>
                </mxCell>
                <mxCell id="OEZo2ttJMFzqsk96og1l-44" value="" style="group" vertex="1" connectable="0" parent="7sUdZJNiSN5nUaYsZcpJ-1">
                    <mxGeometry x="380" y="850" width="30" height="20" as="geometry"/>
                </mxCell>
                <mxCell id="OEZo2ttJMFzqsk96og1l-45" value="" style="edgeStyle=orthogonalEdgeStyle;rounded=0;orthogonalLoop=1;jettySize=auto;html=1;" edge="1" parent="OEZo2ttJMFzqsk96og1l-44" source="OEZo2ttJMFzqsk96og1l-39" target="OEZo2ttJMFzqsk96og1l-43">
                    <mxGeometry relative="1" as="geometry"/>
                </mxCell>
                <mxCell id="OEZo2ttJMFzqsk96og1l-46" value="no" style="text;html=1;resizable=0;autosize=1;align=center;verticalAlign=middle;points=[];fillColor=none;strokeColor=none;rounded=0;" vertex="1" parent="OEZo2ttJMFzqsk96og1l-44">
                    <mxGeometry width="30" height="20" as="geometry"/>
                </mxCell>
                <mxCell id="OEZo2ttJMFzqsk96og1l-49" value="" style="group" vertex="1" connectable="0" parent="7sUdZJNiSN5nUaYsZcpJ-1">
                    <mxGeometry x="260" y="960" width="40" height="20" as="geometry"/>
                </mxCell>
                <mxCell id="OEZo2ttJMFzqsk96og1l-48" value="" style="edgeStyle=orthogonalEdgeStyle;rounded=0;orthogonalLoop=1;jettySize=auto;html=1;" edge="1" parent="OEZo2ttJMFzqsk96og1l-49" source="OEZo2ttJMFzqsk96og1l-39" target="Ix3oLzgPtq5K5zmP9US0-0">
                    <mxGeometry relative="1" as="geometry"/>
                </mxCell>
                <mxCell id="OEZo2ttJMFzqsk96og1l-40" value="" style="group" vertex="1" connectable="0" parent="OEZo2ttJMFzqsk96og1l-49">
                    <mxGeometry width="40" height="20" as="geometry"/>
                </mxCell>
                <mxCell id="OEZo2ttJMFzqsk96og1l-41" value="" style="edgeStyle=orthogonalEdgeStyle;rounded=0;orthogonalLoop=1;jettySize=auto;html=1;" edge="1" parent="OEZo2ttJMFzqsk96og1l-40" source="OEZo2ttJMFzqsk96og1l-39">
                    <mxGeometry relative="1" as="geometry">
                        <Array as="points">
                            <mxPoint x="40"/>
                            <mxPoint x="40"/>
                        </Array>
                    </mxGeometry>
                </mxCell>
                <mxCell id="OEZo2ttJMFzqsk96og1l-42" value="yes" style="text;html=1;strokeColor=none;fillColor=none;align=center;verticalAlign=middle;whiteSpace=wrap;rounded=0;" vertex="1" parent="OEZo2ttJMFzqsk96og1l-40">
                    <mxGeometry width="40" height="20" as="geometry"/>
                </mxCell>
                <mxCell id="OEZo2ttJMFzqsk96og1l-56" value="" style="edgeStyle=orthogonalEdgeStyle;rounded=0;orthogonalLoop=1;jettySize=auto;html=1;" edge="1" parent="7sUdZJNiSN5nUaYsZcpJ-1" source="OEZo2ttJMFzqsk96og1l-54" target="OEZo2ttJMFzqsk96og1l-39">
                    <mxGeometry relative="1" as="geometry"/>
                </mxCell>
                <mxCell id="OEZo2ttJMFzqsk96og1l-54" value="set hoster.ServerList" style="rounded=0;whiteSpace=wrap;html=1;" vertex="1" parent="7sUdZJNiSN5nUaYsZcpJ-1">
                    <mxGeometry x="250" y="690" width="120" height="60" as="geometry"/>
                </mxCell>
            </root>
        </mxGraphModel>
    </diagram>
</mxfile>